<svg id="svg" version="1.1" xmlns="http://www.w3.org/2000/svg" xmlns:xlink="http://www.w3.org/1999/xlink" width="400" height="749.4057724957555" viewBox="0, 0, 400,749.4057724957555"><g id="svgg"><path id="path0" d="M215.789 5.982 C 202.793 6.677,192.552 8.559,162.479 15.782 C 113.900 27.449,102.660 27.903,61.011 19.877 C 40.480 15.920,37.085 15.423,28.072 15.053 L 22.697 14.832 17.291 20.230 L 11.885 25.629 11.885 27.210 C 11.885 39.003,14.504 46.846,26.727 71.647 C 38.200 94.927,39.386 98.170,40.078 108.149 C 40.497 114.200,40.486 571.456,40.067 585.569 C 39.045 619.910,33.798 640.779,18.510 671.307 C 5.045 698.195,3.042 703.708,2.797 714.564 L 2.651 720.979 7.692 726.058 L 12.733 731.136 17.051 730.932 C 25.768 730.521,32.159 729.346,48.896 725.077 C 71.314 719.360,76.506 718.090,80.136 717.436 C 85.070 716.547,95.390 716.236,102.287 716.767 C 110.956 717.435,111.435 717.507,148.387 723.730 C 163.621 726.295,168.133 726.861,177.536 727.386 L 184.445 727.772 190.032 722.205 L 195.619 716.638 195.407 713.752 C 194.665 703.682,192.717 697.454,184.207 677.929 C 178.972 665.920,175.468 655.937,174.133 649.226 L 173.358 645.331 173.181 540.577 C 173.084 482.963,173.049 435.754,173.102 435.670 C 173.293 435.368,177.829 435.009,181.673 434.992 C 190.854 434.951,199.159 437.001,204.825 440.707 C 228.568 456.238,235.919 494.606,231.244 578.608 C 228.594 626.225,229.972 668.888,234.990 694.567 C 239.086 715.531,244.887 722.580,258.042 722.581 C 278.571 722.582,302.260 725.934,343.124 734.620 C 368.468 740.007,371.611 740.541,381.154 741.087 L 384.890 741.301 390.402 735.761 L 395.915 730.221 395.586 725.626 C 394.702 713.291,392.359 706.157,381.448 682.575 C 368.348 654.261,366.727 646.875,366.722 615.450 C 366.716 575.994,365.541 542.484,363.476 522.920 C 356.948 461.051,339.245 414.044,310.458 382.144 L 307.334 378.682 309.270 377.145 C 356.699 339.494,382.881 256.229,372.978 174.533 C 360.010 67.540,298.479 1.562,215.789 5.982 M194.567 122.411 C 198.721 123.386,200.466 123.446,204.414 122.750 C 213.653 121.123,214.647 122.585,211.399 133.031 C 209.155 140.247,209.148 140.360,210.905 141.063 C 215.125 142.751,218.628 142.454,224.572 139.904 C 230.044 137.556,231.250 137.411,232.814 138.916 L 234.011 140.068 233.778 142.598 C 233.495 145.679,232.366 150.354,229.252 161.343 C 225.449 174.763,223.846 182.463,223.238 190.238 C 223.097 192.037,222.895 192.869,222.599 192.869 C 222.361 192.869,221.461 192.966,220.599 193.084 C 218.655 193.350,218.802 193.674,216.800 184.720 C 214.457 174.245,213.164 170.778,210.727 168.439 L 209.508 167.269 209.525 180.494 L 209.543 193.718 212.475 195.756 C 217.965 199.570,225.031 206.956,228.636 212.648 C 244.332 237.432,234.669 272.365,211.140 275.893 L 209.594 276.125 209.879 277.367 C 210.036 278.049,210.786 280.441,211.547 282.683 C 214.858 292.436,212.874 294.992,204.299 292.020 C 200.617 290.744,199.191 290.744,195.416 292.020 C 187.403 294.729,185.641 293.002,187.621 284.380 C 188.875 278.921,189.379 276.448,189.637 274.483 L 189.867 272.735 187.888 271.947 C 183.202 270.083,174.901 271.019,170.503 273.906 L 168.679 275.104 167.277 274.560 C 164.869 273.628,164.964 273.867,165.354 269.723 C 165.698 266.080,166.435 263.047,169.261 253.650 C 170.791 248.562,170.888 246.148,170.162 231.239 C 169.912 226.104,169.762 220.922,169.828 219.725 L 169.949 217.549 171.796 216.923 C 172.812 216.578,173.728 216.422,173.833 216.575 C 176.192 220.026,177.698 222.510,180.151 226.995 C 183.845 233.745,186.851 238.597,188.512 240.487 L 189.784 241.935 189.799 228.147 L 189.813 214.358 187.691 213.069 C 178.345 207.395,171.634 200.915,167.297 193.379 C 155.178 172.322,165.651 142.373,186.795 137.620 C 189.972 136.906,189.901 137.264,187.905 132.018 C 184.096 122.005,185.319 120.241,194.567 122.411 M188.390 165.959 C 184.632 169.988,184.936 179.947,188.931 183.675 L 189.813 184.499 189.813 174.762 C 189.813 169.407,189.689 165.025,189.537 165.025 C 189.385 165.025,188.869 165.446,188.390 165.959 M209.520 237.436 C 209.512 244.508,209.623 247.878,209.864 247.878 C 216.043 247.878,216.588 235.194,210.702 228.353 L 209.533 226.995 209.520 237.436 " stroke="none" fill="#fbfbfb" fill-rule="evenodd"></path><path id="path1" d="M209.508 0.221 C 208.854 0.282,206.409 0.494,204.075 0.691 C 193.119 1.617,183.147 3.576,155.525 10.230 C 110.884 20.983,98.746 21.628,64.516 15.064 C 38.667 10.107,32.103 9.155,23.939 9.181 C 15.758 9.207,13.257 10.289,7.199 16.425 C 1.070 22.632,0.212 24.604,0.237 32.428 C 0.274 44.217,3.542 54.635,13.362 74.265 C 25.038 97.608,27.143 102.910,27.835 110.729 C 28.302 116.011,28.305 580.909,27.837 591.511 C 26.477 622.372,21.468 640.918,6.388 670.925 L 0.000 683.636 0.000 710.537 L 0.000 737.439 1.783 738.659 C 9.140 743.696,19.496 742.708,56.071 733.479 C 80.766 727.248,79.251 727.509,90.662 727.523 C 102.771 727.537,101.392 727.358,141.256 734.086 C 177.464 740.197,183.731 739.829,192.566 731.070 C 203.413 720.316,202.620 710.203,188.293 676.570 C 182.046 661.905,179.924 655.856,178.526 648.727 L 177.793 644.992 177.683 545.885 C 177.596 466.786,177.660 446.674,178.000 446.264 C 179.840 444.047,192.895 447.861,198.348 452.208 C 211.024 462.315,216.985 479.242,219.724 512.903 C 220.781 525.888,220.468 556.612,219.012 582.852 C 215.499 646.155,219.673 701.213,229.365 719.432 C 234.940 729.912,240.529 732.624,258.234 733.438 C 282.865 734.572,299.581 737.098,338.710 745.603 L 355.348 749.219 371.534 749.327 L 387.719 749.436 390.261 747.219 C 398.087 740.394,399.983 736.751,399.992 728.523 C 400.006 716.139,396.773 705.621,385.221 680.475 C 377.332 663.301,373.758 653.099,372.314 643.633 C 371.909 640.975,371.692 633.246,371.316 608.015 C 370.558 557.093,370.065 544.486,368.069 524.958 C 362.264 468.181,346.431 421.112,322.627 389.869 C 316.135 381.349,316.168 382.671,322.284 376.303 C 366.537 330.218,387.259 253.160,377.069 172.581 C 364.875 76.166,313.385 11.259,241.256 1.383 C 232.325 0.160,216.359 -0.424,209.508 0.221 M238.762 6.598 C 317.137 15.136,371.086 92.142,374.874 200.884 C 377.400 273.400,351.164 343.888,309.270 377.145 L 307.334 378.682 310.458 382.144 C 339.245 414.044,356.948 461.051,363.476 522.920 C 365.541 542.484,366.716 575.994,366.722 615.450 C 366.727 646.875,368.348 654.261,381.448 682.575 C 392.359 706.157,394.702 713.291,395.586 725.626 L 395.915 730.221 390.402 735.761 L 384.890 741.301 381.154 741.087 C 371.611 740.541,368.468 740.007,343.124 734.620 C 302.260 725.934,278.571 722.582,258.042 722.581 C 244.887 722.580,239.086 715.531,234.990 694.567 C 229.972 668.888,228.594 626.225,231.244 578.608 C 236.770 479.305,224.981 439.822,188.464 435.329 C 184.042 434.784,173.513 435.018,173.102 435.670 C 173.049 435.754,173.084 482.963,173.181 540.577 L 173.358 645.331 174.133 649.226 C 175.468 655.937,178.972 665.920,184.207 677.929 C 192.717 697.454,194.665 703.682,195.407 713.752 L 195.619 716.638 190.032 722.205 L 184.445 727.772 177.536 727.386 C 168.133 726.861,163.621 726.295,148.387 723.730 C 111.435 717.507,110.956 717.435,102.287 716.767 C 95.390 716.236,85.070 716.547,80.136 717.436 C 76.506 718.090,71.314 719.360,48.896 725.077 C 32.159 729.346,25.768 730.521,17.051 730.932 L 12.733 731.136 7.692 726.058 L 2.651 720.979 2.797 714.564 C 3.042 703.708,5.045 698.195,18.510 671.307 C 33.798 640.779,39.045 619.910,40.067 585.569 C 40.486 571.456,40.497 114.200,40.078 108.149 C 39.386 98.170,38.200 94.927,26.727 71.647 C 14.504 46.846,11.885 39.003,11.885 27.210 L 11.885 25.629 17.291 20.230 L 22.697 14.832 28.072 15.053 C 37.085 15.423,40.480 15.920,61.011 19.877 C 102.660 27.903,113.900 27.449,162.479 15.782 C 202.892 6.076,217.652 4.299,238.762 6.598 M186.583 122.585 C 185.315 123.909,185.604 125.969,187.905 132.018 C 189.901 137.264,189.972 136.906,186.795 137.620 C 165.651 142.373,155.178 172.322,167.297 193.379 C 171.634 200.915,178.345 207.395,187.691 213.069 L 189.813 214.358 189.799 228.147 L 189.784 241.935 188.512 240.487 C 186.851 238.597,183.845 233.745,180.151 226.995 C 177.698 222.510,176.192 220.026,173.833 216.575 C 173.728 216.422,172.812 216.578,171.796 216.923 L 169.949 217.549 169.828 219.725 C 169.762 220.922,169.912 226.104,170.162 231.239 C 170.888 246.148,170.791 248.562,169.261 253.650 C 166.435 263.047,165.698 266.080,165.354 269.723 C 164.964 273.867,164.869 273.628,167.277 274.560 L 168.679 275.104 170.503 273.906 C 174.901 271.019,183.202 270.083,187.888 271.947 L 189.867 272.735 189.637 274.483 C 189.379 276.448,188.875 278.921,187.621 284.380 C 185.641 293.002,187.403 294.729,195.416 292.020 C 199.191 290.744,200.617 290.744,204.299 292.020 C 212.874 294.992,214.858 292.436,211.547 282.683 C 210.786 280.441,210.036 278.049,209.879 277.367 L 209.594 276.125 211.140 275.893 C 234.669 272.365,244.332 237.432,228.636 212.648 C 225.031 206.956,217.965 199.570,212.475 195.756 L 209.543 193.718 209.525 180.494 L 209.508 167.269 210.727 168.439 C 213.164 170.778,214.457 174.245,216.800 184.720 C 218.802 193.674,218.655 193.350,220.599 193.084 C 221.461 192.966,222.361 192.869,222.599 192.869 C 222.895 192.869,223.097 192.037,223.238 190.238 C 223.846 182.463,225.449 174.763,229.252 161.343 C 232.366 150.354,233.495 145.679,233.778 142.598 L 234.011 140.068 232.814 138.916 C 231.250 137.411,230.044 137.556,224.572 139.904 C 218.628 142.454,215.125 142.751,210.905 141.063 C 209.148 140.360,209.155 140.247,211.399 133.031 C 214.647 122.585,213.653 121.123,204.414 122.750 C 200.466 123.446,198.721 123.386,194.567 122.411 C 189.566 121.237,187.838 121.275,186.583 122.585 M189.813 174.762 L 189.813 184.499 188.931 183.675 C 185.649 180.612,184.696 172.363,187.089 167.726 C 187.603 166.731,189.149 165.025,189.537 165.025 C 189.689 165.025,189.813 169.407,189.813 174.762 M212.886 231.607 C 216.552 238.451,214.801 247.878,209.864 247.878 C 209.623 247.878,209.512 244.508,209.520 237.436 L 209.533 226.995 210.702 228.353 C 211.345 229.100,212.327 230.564,212.886 231.607 " stroke="none" fill="#9304ab" fill-rule="evenodd"></path></g></svg>